<svg width="119" height="136" viewBox="0 0 119 136" fill="none" xmlns="http://www.w3.org/2000/svg">
<path d="M34.8362 39.4026L34.7498 38.403C33.9045 28.8044 33.6824 23.0427 35.0706 21.9872C35.4778 21.5153 38.1617 21.1801 42.9803 21.0559C43.4554 21.0435 54.635 20.7579 55.869 21.9996L55.2458 22.6267C54.0797 21.6085 37.0388 21.6333 35.6444 22.6577C34.3303 23.6636 35.2434 33.9389 35.6321 38.3285L35.7185 39.3343L34.8424 39.4088L34.8362 39.4026Z" fill="url(#paint0_linear_502_8333)"/>
<path d="M93.9443 102.994H41.4528C41.2019 102.994 41 102.792 41 102.542V25.4522C41 25.2017 41.2019 25 41.4528 25H118.547C118.798 25 119 25.2017 119 25.4522V77.9737C119 78.0899 118.951 78.206 118.865 78.2915L94.2625 102.866C94.1768 102.951 94.0606 103 93.9443 103V102.994ZM41.8994 102.096H93.7546L118.094 77.7904V25.8984H41.9056V102.089L41.8994 102.096Z" fill="url(#paint1_linear_502_8333)"/>
<path d="M73.1094 106.258C64.1262 106.258 53.2674 103.923 52.5826 103.768C52.379 103.725 52.2309 103.538 52.2309 103.327C52.2309 103.253 52.2124 103.147 52.0828 103.017C51.0339 101.974 46.2215 102.036 43.0379 102.067C39.8605 102.098 39.0152 102.073 38.6635 101.725C38.4414 101.502 38.2563 101.316 38.4908 91.3445C38.5031 90.9409 38.5093 90.6801 38.5093 90.6242C38.5093 90.4814 39.3545 76.8037 40.317 74.3761C40.1628 72.3955 37.9417 44.4378 37.5776 40.2655C37.374 37.9497 36.9113 24.1788 37.738 23.353C38.3859 22.7011 56.34 22.6639 58.1045 23.2723V23.2599C58.376 23.353 60.048 23.4338 61.2696 23.4958C65.1442 23.6945 65.391 23.7566 65.5515 24.154C66.8286 25.1722 85.8624 24.1229 98.4611 23.4276C113.75 22.5832 116.52 22.5149 116.964 22.9619C117.193 23.1916 117.248 23.2413 117.199 31.8093C117.174 35.9567 117.143 41.6377 117.322 42.2213H117.31C117.501 42.8359 117.914 46.5798 118.963 74.2333V75.7606C118.963 76.0959 118.963 76.2822 101.126 95.9699C98.4858 98.888 96.1968 101.409 95.987 101.663C95.913 101.769 95.7957 101.843 95.6662 101.856C90.3848 102.396 84.5729 103.215 83.9868 103.656C82.0495 105.606 77.8355 106.258 73.1094 106.258V106.258ZM53.0638 102.955C55.9081 103.545 78.3784 108.027 83.3575 103.017C84.1472 102.222 91.9396 101.34 95.4194 100.98C95.8636 100.434 97.0914 99.0867 100.46 95.3677C106.34 88.8796 117.186 76.9092 118.063 75.6489V74.2519C117.6 62.1884 116.816 43.8976 116.514 42.6186C116.31 42.2151 116.249 40.7622 116.298 31.8093C116.316 28.4131 116.335 24.6072 116.255 23.6386C114.78 23.44 106.513 23.8932 98.5043 24.334C75.1887 25.6192 66.1252 25.8862 64.8481 24.6817C64.4162 24.5637 62.5036 24.4706 61.2203 24.4023C58.0922 24.2409 57.8022 24.1912 57.5924 23.9801C56.6608 23.6076 40.4528 23.6262 38.3859 24.0422C38.0342 25.5509 38.1329 36.3603 38.4723 40.191C38.8486 44.4937 41.1993 74.1215 41.2178 74.4196C41.2301 74.581 41.1561 74.7424 41.0204 74.8293C40.5083 76.3815 39.4039 88.9355 39.4039 90.6305C39.4039 90.6925 39.3977 90.9595 39.3854 91.3755C39.2188 98.3479 39.2743 100.564 39.3545 101.117C39.7741 101.216 41.4954 101.198 43.0256 101.179C47.6035 101.123 51.4905 101.179 52.706 102.39C52.8787 102.557 52.9959 102.756 53.0638 102.961V102.955Z" fill="url(#paint2_linear_502_8333)"/>
<path d="M71.0478 108.76C61.4969 108.76 52.0757 104.029 51.4834 103.725C51.3353 103.65 51.2427 103.495 51.2427 103.327C51.2427 102.669 51.033 102.148 50.6073 101.719C49.0586 100.192 45.0421 100.279 41.8215 100.347C39.0759 100.409 37.4903 100.409 36.8795 99.7946C35.954 98.8633 36.6944 88.4699 36.7006 88.3706C36.7129 88.234 38.57 74.7674 40.2605 73.389C39.5942 69.4217 35.1396 42.8919 34.8373 39.3964C34.8249 39.2412 33.4799 23.5705 35.0224 22.0183C35.7998 21.2298 43.7156 21.0994 45.2889 21.0808C48.855 21.0311 54.9816 21.0994 55.8639 21.9872C56.1169 22.1425 57.7149 22.3163 58.8809 22.4405C61.9535 22.7757 62.8173 22.9372 63.0332 23.4711C64.0019 25.8677 83.2207 23.7443 95.9367 22.3411C109.171 20.8759 114.255 20.404 115.088 21.2484C115.446 21.6085 115.501 22.9993 115.421 29.9965C115.378 34.0569 115.31 39.6199 115.668 40.2656C116.427 41.0231 118.055 60.2328 118.956 71.6071V73.1531C118.956 73.7491 116.599 76.8845 102.619 93.9088C100.212 96.8393 98.1331 99.3724 97.911 99.6891C97.8493 99.807 97.7382 99.8877 97.6087 99.9188C93.0554 100.825 85.8923 102.564 84.8187 103.638C81.0058 107.475 76.0021 108.754 71.0416 108.754L71.0478 108.76ZM52.1127 103.048C54.4634 104.184 74.0956 113.187 84.2017 103.017C85.7504 101.459 95.548 99.4345 97.2879 99.0868C97.6704 98.5653 98.7686 97.2242 101.94 93.3562C107.443 86.6508 117.698 74.1651 118.086 73.0724L118.074 71.6506C117.142 59.8975 115.544 41.942 114.97 40.7996C114.508 40.3464 114.452 37.8256 114.545 29.9902C114.582 26.681 114.631 22.5957 114.434 21.8631C113.286 21.3167 104.13 22.3287 96.0354 23.2228C77.1188 25.3151 63.5885 26.5879 62.2558 23.8809C61.8733 23.6574 60.0224 23.4587 58.7884 23.3221C56.4809 23.0738 55.5739 22.9496 55.2469 22.6143C54.4387 21.9189 37.5397 21.5651 35.6332 22.664C34.9237 23.5208 35.0902 32.126 35.7196 39.3219C36.0404 42.985 41.1613 73.389 41.2107 73.6933C41.2415 73.8857 41.149 74.072 40.9762 74.1589C40.8775 74.2086 40.7726 74.221 40.6739 74.1962C39.7114 75.4565 37.8481 85.5208 37.5828 88.4451C37.4101 90.4008 37.0831 98.3976 37.5335 99.1986C37.879 99.5463 39.9644 99.4966 41.803 99.4593C45.1902 99.3848 49.4103 99.2979 51.2242 101.08C51.761 101.608 52.0572 102.266 52.1189 103.036L52.1127 103.048Z" fill="url(#paint3_linear_502_8333)"/>
<path d="M69.0474 111.144C58.6822 111.144 50.5134 103.762 50.39 103.65C50.2975 103.569 50.2481 103.451 50.2481 103.327C50.2481 101.949 49.8779 100.918 49.1067 100.167C47.3236 98.4287 43.7452 98.5404 40.5862 98.6335C38.0134 98.7143 35.9774 98.7763 35.0828 97.8699C34.3609 97.1435 34.2869 93.9398 34.836 86.8122L34.8853 86.1665C35.0643 83.6334 37.9394 73.3518 40.068 72.5508C40.105 72.5384 40.142 72.526 40.179 72.5198C39.0931 68.1116 33.0591 43.519 32.0966 38.5769C31.1033 33.5044 30.4122 22.5833 32.3002 20.6834C33.7748 19.1995 51.4389 18.56 53.4996 20.64C53.7772 20.9194 55.3382 21.1863 56.4796 21.3788C58.7809 21.7699 60.2123 22.0493 60.5085 22.7882C62.0139 26.501 80.1654 23.4773 93.4242 21.2732C105.221 19.3113 111.952 18.262 113.211 19.5286C113.735 20.0563 113.748 22.3225 113.643 28.1897C113.575 31.9957 113.476 37.7511 114.031 38.3658C115.265 39.6075 118.338 64.0946 118.936 68.9933V70.5578C118.936 71.5637 113.939 78.5298 104.092 91.8847C101.914 94.8338 100.032 97.3918 99.8285 97.7395C99.7791 97.8575 99.6804 97.9568 99.5447 97.9941C99.4275 98.0251 87.8714 101.403 85.6441 103.644C80.0482 109.275 74.2671 111.15 69.0413 111.15L69.0474 111.144ZM51.118 103.129C51.9201 103.83 56.1526 107.351 61.9522 109.182C70.522 111.883 78.2898 109.809 85.0395 103.023C87.2977 100.751 97.6752 97.634 99.1498 97.1993C99.4645 96.6964 100.439 95.3802 103.401 91.3632C108.09 85.0117 117.838 71.7872 118.079 70.5268V69.0491C116.721 58.0473 114.247 40.098 113.408 38.9742C112.68 38.2478 112.655 34.9696 112.779 28.1773C112.834 24.8308 112.908 20.6648 112.581 20.1246C111.6 19.1375 102.019 20.7331 93.5723 22.1363C75.3838 25.1661 61.3414 27.1591 59.7126 23.1172C59.4904 22.7757 57.5223 22.4405 56.3439 22.2356C54.4991 21.9189 53.3392 21.7016 52.8949 21.2546C51.2353 19.5845 34.0154 20.2302 32.9172 21.2981C31.5845 22.6392 31.7943 32.4861 32.9542 38.403C34.0031 43.7922 41.123 72.6874 41.197 72.9792C41.2464 73.1717 41.16 73.3704 40.9873 73.4635C40.8207 73.5566 40.6047 73.5318 40.469 73.389C38.9389 73.9043 35.9836 83.1429 35.7614 86.2224L35.7121 86.8743C35.0704 95.2498 35.4345 96.9696 35.7121 97.249C36.3414 97.8823 38.4021 97.8202 40.5739 97.7581C43.9056 97.6526 47.6753 97.5408 49.7237 99.54C50.6121 100.409 51.0872 101.614 51.1242 103.122L51.118 103.129Z" fill="url(#paint4_linear_502_8333)"/>
<path d="M66.9082 113.652C66.2727 113.652 65.6372 113.621 65.0017 113.553C55.2226 112.522 49.3984 103.656 49.3367 103.563C49.2935 103.495 49.2688 103.414 49.2688 103.327C49.2688 101.123 48.7444 99.5462 47.6708 98.5093C45.7705 96.6716 42.3771 96.8019 39.3786 96.9199C36.738 97.0254 34.4613 97.1124 33.3076 95.9514C32.3883 95.0263 32.308 91.6239 33.0237 84.5646L33.0854 83.9562C33.4186 80.38 36.8182 72.7184 39.4465 71.7685C39.6624 71.6878 39.8722 71.6567 40.0696 71.663C38.4717 66.7457 30.7779 43.0657 29.3651 37.7511C27.6005 31.1264 27.3167 21.6519 29.5872 19.3671C31.6294 17.3121 48.5716 16.716 51.1444 19.3051C51.5516 19.7148 52.8966 20.0377 54.0874 20.3233C55.9013 20.7579 57.6103 21.1739 57.9929 22.1176C60.0227 27.1404 77.1624 23.3159 90.9395 20.2426C102.52 17.6597 109.696 16.1635 111.337 17.815C111.991 18.4731 112.003 20.9317 111.874 26.3892C111.781 30.3255 111.651 35.7146 112.435 36.5031C114.07 38.1484 118.438 63.4923 118.932 66.3731V67.9564C118.938 69.2354 114.039 76.9466 105.58 89.8358C103.618 92.8222 101.922 95.4112 101.743 95.7775C101.706 95.9017 101.613 96.0072 101.484 96.0569C101.366 96.1004 89.4834 100.614 86.4788 103.638C79.8648 110.293 73.2878 113.659 66.8959 113.659L66.9082 113.652ZM50.1202 103.197C50.7866 104.165 56.2838 111.771 65.1005 112.702C71.807 113.41 78.8035 110.151 85.8865 103.029C88.8665 100.03 99.5587 95.8768 101.039 95.3119C101.305 94.8276 102.156 93.5175 104.877 89.3639C109.147 82.8572 118.031 69.3161 118.093 67.9564V66.4477C116.254 55.7314 112.929 38.2043 111.837 37.1116C110.868 36.1368 110.886 32.2253 111.028 26.3705C111.102 23.2289 111.207 18.9263 110.745 18.4234C109.35 17.0203 100.089 19.0877 91.1308 21.0807C76.3109 24.3838 59.5106 28.1338 57.2093 22.4404C56.9934 21.9003 55.198 21.4719 53.89 21.1552C52.4647 20.8138 51.1136 20.4847 50.5398 19.9073C49.5464 18.9077 45.4435 18.3427 40.082 18.4793C34.7575 18.6097 30.8026 19.3547 30.1918 19.9694C28.3656 21.8072 28.3656 30.667 30.1918 37.5276C31.7589 43.4134 41.0815 71.9982 41.174 72.29C41.2357 72.4763 41.1617 72.6874 40.9951 72.7867C40.8285 72.8923 40.6126 72.8674 40.4707 72.7246C40.2609 72.5135 40.0388 72.4639 39.7426 72.5756C37.6758 73.3269 34.2639 80.5352 33.943 84.0369L33.8813 84.6515C33.0669 92.6421 33.4556 94.8772 33.9184 95.3429C34.8068 96.237 37.0156 96.1562 39.3539 96.0631C42.5252 95.9389 46.1099 95.8023 48.2693 97.8947C49.4971 99.0867 50.1079 100.819 50.1264 103.197H50.1202Z" fill="url(#paint5_linear_502_8333)"/>
<path d="M64.8165 116.117C63.7245 116.117 62.6571 116.005 61.6144 115.782C52.3721 113.814 48.3494 103.582 48.3123 103.476C48.2938 103.427 48.2815 103.377 48.2815 103.327C48.2815 100.235 47.6213 98.0996 46.2701 96.7958C44.3143 94.9146 41.1801 95.0574 38.1569 95.1939C35.473 95.3181 32.9372 95.4361 31.5244 94.0143C29.5068 91.9841 31.2652 81.7956 31.2837 81.6963C32.0735 77.6792 35.7075 71.7748 38.6751 70.8683C39.1255 70.7317 39.5512 70.7069 39.9523 70.8C37.7558 65.2122 27.8472 40.0297 26.6441 36.9192C24.3736 31.0582 24.0774 20.8387 26.8785 18.0261C28.1618 16.7347 33.2581 16.0083 37.4535 15.8841C39.5698 15.8158 46.628 15.7786 48.7936 17.9516C49.318 18.4856 50.5273 18.8705 51.6934 19.243C53.4086 19.7894 55.0312 20.3109 55.4878 21.4409C58.0359 27.7489 74.9164 23.0303 88.4715 19.2306C100.169 15.9586 107.437 14.0526 109.473 16.1014C110.3 16.9334 110.251 19.8701 110.109 24.5825C109.986 28.6057 109.831 33.6161 110.843 34.6344C112.854 36.6584 118.315 60.9841 118.932 63.7531L118.944 65.355C118.944 67.0748 113.33 76.9528 107.08 87.7994C105.333 90.8292 103.822 93.4555 103.668 93.828C103.637 93.9522 103.557 94.064 103.433 94.1198C103.31 94.1757 91.1121 99.8256 87.3239 103.638C79.0687 111.939 71.5231 116.13 64.8227 116.13L64.8165 116.117ZM49.1206 103.247C49.4846 104.134 53.3901 113.174 61.7933 114.962C68.9503 116.477 77.3412 112.473 86.7192 103.029C90.4273 99.2979 101.434 94.1074 102.921 93.412C103.143 92.934 103.884 91.6302 106.339 87.3648C110.448 80.2434 118.093 66.9817 118.093 65.3488V63.8401C115.705 53.1611 111.633 36.6274 110.238 35.2304C109.054 34.0383 109.085 30.2324 109.257 24.5515C109.356 21.3229 109.48 17.3121 108.869 16.6912C107.08 14.8907 98.1457 17.3866 88.6812 20.0377C74.0774 24.123 57.5238 28.7609 54.6919 21.7513C54.3834 20.9877 52.8101 20.4848 51.4219 20.0439C50.1016 19.6217 48.8553 19.2244 48.1828 18.5476C46.9056 17.2624 42.7904 16.5609 37.4597 16.7285C32.6843 16.8775 28.3839 17.6908 27.4523 18.6284C24.898 21.1988 25.2682 31.1016 27.4029 36.6211C28.7541 40.098 41.0197 71.2719 41.1431 71.5885C41.2171 71.7748 41.1492 71.9859 40.9826 72.0976C40.8161 72.2094 40.6001 72.1845 40.4582 72.0417C40.0325 71.6133 39.5204 71.4954 38.9034 71.6816C36.3121 72.4763 32.8138 78.1821 32.092 81.8701C31.5737 84.5274 30.784 92.102 32.1043 93.4307C33.2519 94.5917 35.6149 94.4799 38.1075 94.362C41.1616 94.2192 44.6228 94.0578 46.8439 96.1935C48.3555 97.6526 49.1021 99.956 49.1144 103.253L49.1206 103.247Z" fill="url(#paint6_linear_502_8333)"/>
<path d="M62.7185 118.588C61.3797 118.588 60.0902 118.402 58.8624 118.036C49.8915 115.347 47.4051 103.898 47.3002 103.414C47.294 99.2978 46.5105 96.597 44.9125 95.0696C42.9197 93.1636 39.8718 93.325 36.9288 93.4864C34.0845 93.6354 31.4007 93.7782 29.7287 92.1019C27.5878 89.9475 28.8094 81.6775 29.4757 79.461C30.6356 75.6116 34.2696 70.7254 37.6445 69.8748C38.4096 69.6823 39.1253 69.7071 39.7731 69.9431C36.9905 64.0138 25.5764 39.6881 23.8982 36.0871C20.548 28.9098 20.6591 20.2114 24.1512 16.6973C26.8659 13.9655 42.531 12.6927 46.4241 16.6042C47.0658 17.2499 48.1825 17.7031 49.2684 18.1439C50.8232 18.7772 52.4335 19.4291 52.9641 20.7516C56.0305 28.3448 71.9547 22.9743 86.0094 18.2309C96.2204 14.785 105.043 11.8049 107.598 14.3753C108.616 15.3997 108.486 18.8145 108.332 22.7694C108.177 26.8672 107.999 31.5113 109.239 32.7592C111.67 35.2054 118.617 60.065 118.913 61.1205C118.925 61.1578 118.931 61.195 118.931 61.2323V62.741C118.931 64.7712 113.804 75.2142 108.554 85.7442C106.999 88.8609 105.654 91.5493 105.568 91.8846C105.568 92.0398 105.494 92.1019 105.358 92.1764C105.234 92.2447 92.716 99.0308 88.1504 103.625C78.2602 113.578 69.7336 118.588 62.7247 118.588H62.7185ZM39.4091 92.5675C41.6734 92.5675 43.839 92.8966 45.4863 94.4674C47.257 96.1624 48.1208 99.0618 48.1208 103.333C48.1331 103.364 50.601 114.702 59.103 117.247C66.4389 119.439 76.0144 114.664 87.5642 103.042C92.0003 98.5776 103.334 92.3378 104.821 91.5245C105.006 91.0278 105.66 89.7053 107.82 85.3779C111.417 78.1696 118.111 64.7464 118.111 62.7472V61.2944C116.106 54.1109 110.553 35.2489 108.665 33.349C107.166 31.8403 107.345 27.2148 107.517 22.7384C107.641 19.454 107.789 15.7288 107.024 14.9651C104.833 12.761 95.8194 15.7971 86.2809 19.0194C71.8868 23.8746 55.5739 29.3817 52.2114 21.0682C51.8103 20.0748 50.3666 19.485 48.9722 18.92C47.8123 18.4482 46.6154 17.9577 45.8565 17.194C44.3079 15.6356 40.0877 14.7912 34.8743 14.9837C30.1606 15.1576 25.9034 16.1261 24.7497 17.2871C21.893 20.1618 21.1712 28.2641 24.6633 35.7332C26.5759 39.8371 41.1489 70.8868 41.1489 70.8868C41.2353 71.0668 41.1798 71.2841 41.0132 71.4021C40.8528 71.5201 40.6245 71.5014 40.4826 71.3586C39.7731 70.6446 38.8908 70.4149 37.8604 70.6757C34.8434 71.4394 31.3698 76.0648 30.284 79.6969C29.5004 82.3046 28.6736 89.8419 30.3333 91.5121C31.7462 92.9339 34.2511 92.7973 36.9041 92.6607C37.7432 92.6172 38.5885 92.5737 39.4214 92.5737L39.4091 92.5675Z" fill="url(#paint7_linear_502_8333)"/>
<path d="M60.6204 121.053C59.1397 121.053 57.7453 120.811 56.4435 120.333C47.559 117.061 46.3559 103.917 46.3065 103.358C46.3065 98.3231 45.4181 95.0511 43.5918 93.3189C41.5805 91.4066 38.5881 91.5867 35.7007 91.7543C32.8317 91.9219 29.8702 92.102 27.9391 90.1587C25.4095 87.6131 26.3905 81.0319 27.6676 77.226C28.9447 73.4138 32.7885 69.6452 36.2374 68.838C37.4652 68.5462 38.6005 68.6331 39.5815 69.0677C36.2066 62.8404 23.3796 39.1977 21.1585 35.2304C17.5492 28.7795 17.6787 19.1188 21.4238 15.3501C22.9662 13.798 27.2974 12.6121 32.2024 12.401C34.7999 12.2893 41.1609 12.3389 44.0484 15.2446C44.7888 15.9896 45.8191 16.5112 46.8124 17.0141C48.287 17.7591 49.811 18.529 50.4279 20.0625C54.0064 28.9285 69.6962 22.7199 83.5412 17.25C93.8385 13.1771 102.735 9.65677 105.703 12.6556C106.869 13.829 106.715 17.132 106.536 20.9628C106.351 24.9239 106.147 29.4128 107.616 30.8967C110.429 33.7279 118.536 57.4947 118.876 58.5005C118.888 58.544 118.9 58.5875 118.9 58.6309V60.1396C118.9 62.4741 114.507 73.0599 110.01 83.6954C108.671 86.8619 107.511 89.5999 107.443 89.9352C107.443 90.078 107.375 90.1587 107.252 90.2332C107.122 90.3139 94.2889 98.2362 88.9459 103.613C77.4269 115.205 67.9131 121.047 60.5896 121.047L60.6204 121.053ZM38.2426 90.8478C40.4267 90.8478 42.5244 91.1831 44.1533 92.7353C46.1461 94.6289 47.1209 98.0934 47.1209 103.334C47.1333 103.433 48.324 116.484 56.7273 119.575C64.1434 122.301 74.7986 116.738 88.4091 103.048C93.5177 97.9071 105.308 90.5126 106.721 89.6309C106.881 89.1032 107.468 87.6938 109.294 83.385C112.595 75.5807 118.117 62.5114 118.117 60.1459V58.7054C115.217 50.1871 109.214 33.6285 107.073 31.4741C105.345 29.7357 105.555 25.2592 105.752 20.9255C105.907 17.5977 106.067 14.1519 105.154 13.233C102.556 10.6191 93.4745 14.2077 83.862 18.0137C69.6715 23.6263 53.5869 29.9902 49.6999 20.373C49.194 19.125 47.8736 18.4545 46.4669 17.7467C45.4119 17.2127 44.326 16.6664 43.4931 15.8282C41.6483 13.9718 37.4467 12.9908 32.2518 13.2268C27.6799 13.4254 23.3734 14.5678 22.0099 15.94C18.4931 19.4789 18.4253 28.6678 21.8803 34.8392C24.4285 39.3964 40.9511 69.8811 41.1177 70.1853C41.2164 70.3654 41.1671 70.5889 41.0067 70.7068C40.8463 70.831 40.6241 70.8124 40.4761 70.6696C39.4149 69.6017 38.0513 69.254 36.4349 69.6389C33.2327 70.3964 29.6481 73.9167 28.4512 77.4929C26.9889 81.8452 26.52 87.5696 28.5314 89.5875C30.2034 91.27 32.8626 91.1148 35.6698 90.9472C36.5274 90.8975 37.3974 90.8416 38.2488 90.8416L38.2426 90.8478Z" fill="url(#paint8_linear_502_8333)"/>
<path d="M58.5174 123.518C56.9564 123.518 55.5127 123.239 54.1862 122.68C45.2708 118.911 45.314 103.961 45.3202 103.321C45.3202 97.3296 44.333 93.4864 42.3093 91.5742C40.2795 89.6619 37.4661 89.8419 34.4861 90.0406C31.469 90.2393 28.3471 90.4442 26.163 88.2401C23.5224 85.5828 23.8493 78.9209 25.8915 74.9721C27.9214 71.0482 31.6418 68.0432 35.1462 67.5031C36.6578 67.2671 38.0769 67.4907 39.3232 68.1426C35.2573 61.5614 21.1532 38.7258 18.4385 34.3859C14.1196 27.4756 14.243 18.5351 18.7223 14.0276C20.4745 12.2643 24.8489 10.917 29.6058 10.6749C34.992 10.4079 39.4034 11.5814 41.7109 13.9034C42.5253 14.723 43.4631 15.3004 44.3639 15.853C45.8323 16.7594 47.2205 17.61 47.9424 19.3857C48.8246 21.5649 50.2067 23.0116 52.181 23.8001C58.7765 26.4512 70.6533 21.0558 81.1358 16.2938C91.5072 11.5814 100.466 7.51468 103.859 10.9357C105.173 12.2581 105.001 15.4556 104.797 19.156C104.587 22.9805 104.353 27.3142 106.056 29.0278C109.251 32.2439 118.506 54.9118 118.901 55.8804C118.92 55.9301 118.932 55.9797 118.932 56.0294V57.5381C118.932 60.4065 114.477 73.1902 111.528 81.6527C110.405 84.875 109.437 87.6627 109.387 87.998C109.387 88.1284 109.326 88.2277 109.214 88.3022C109.085 88.3953 95.9371 97.46 89.8228 103.619C76.6689 116.856 66.1741 123.524 58.5297 123.524L58.5174 123.518ZM37.0774 89.128C39.1998 89.128 41.242 89.4694 42.8523 90.9906C45.0487 93.0581 46.1161 97.0937 46.1161 103.327C46.1161 103.482 46.0729 118.383 54.4947 121.941C61.9601 125.095 73.6518 118.737 89.2429 103.042C95.0795 97.1682 107.209 88.6995 108.616 87.7248C108.758 87.1412 109.307 85.5455 110.757 81.3857C113.509 73.4883 118.117 60.2637 118.117 57.5381V56.1101C117.525 54.6635 108.474 32.6102 105.476 29.599C103.52 27.6308 103.76 23.3034 103.989 19.1187C104.168 15.9026 104.347 12.581 103.285 11.5131C100.274 8.48323 91.1308 12.6368 81.4505 17.0326C70.8199 21.863 58.7765 27.3328 51.8725 24.5513C49.7193 23.6821 48.146 22.0492 47.1896 19.6899C46.5727 18.1626 45.3511 17.4113 43.9382 16.5421C42.9942 15.9647 42.0255 15.3625 41.1371 14.4746C38.99 12.314 34.7945 11.2151 29.6366 11.4758C25.1388 11.6993 20.8755 12.9845 19.2775 14.5926C15.1191 18.7772 15.0451 27.4632 19.1048 33.9575C22.2699 39.0176 40.9026 69.1856 41.0877 69.4899C41.1926 69.6637 41.1556 69.8872 40.9952 70.0176C40.8348 70.148 40.6127 70.1293 40.4646 69.9865C39.0517 68.5648 37.2501 67.9811 35.2511 68.2916C31.9811 68.8007 28.5014 71.6319 26.5826 75.3384C24.7008 78.9767 24.3429 85.2848 26.7121 87.6751C28.6433 89.6246 31.4505 89.4384 34.4244 89.2459C35.3066 89.19 36.1951 89.128 37.0712 89.128H37.0774Z" fill="url(#paint9_linear_502_8333)"/>
<path d="M56.4135 125.983C54.797 125.983 53.3347 125.672 52.0082 125.058C42.9942 120.854 44.2775 104.01 44.333 103.296C44.333 96.3239 43.2595 91.9095 41.0507 89.8358C39.0147 87.9235 36.2198 88.116 33.2644 88.3271C30.0993 88.5506 26.8232 88.7803 24.3738 86.3155C21.3321 83.2546 21.7701 76.8348 24.0838 72.7495C25.9718 69.4278 29.7847 66.845 33.5729 66.3359C35.5843 66.0627 37.4352 66.3794 39.0332 67.2424C34.2886 60.4252 18.932 38.3409 15.6929 33.5292C11.7998 27.7365 10.9607 17.7591 15.9952 12.6928C20.0981 8.56402 33.6963 6.88146 39.3355 12.5562C40.1869 13.4068 41.0075 14.0153 41.8096 14.6051C43.2286 15.6481 44.5737 16.6353 45.4066 18.7028C46.4739 21.3415 48.0904 23.0365 50.3486 23.8809C57.1415 26.4264 68.5926 20.5406 78.6987 15.3501C89.1318 9.99202 98.1459 5.36654 101.971 9.21593C103.433 10.6874 103.224 13.9221 103.008 17.3493C102.773 21.0373 102.508 25.2157 104.439 27.1591C108.018 30.7601 118.426 52.3353 118.87 53.2542C118.895 53.3101 118.907 53.3659 118.907 53.428V54.9367C118.907 58.1404 115.347 71.0607 112.99 79.6101C112.083 82.8945 111.3 85.7319 111.275 86.0609C111.269 86.1727 111.207 86.2968 111.121 86.3651C110.985 86.4645 97.5289 96.6716 90.6373 103.613C75.8483 118.495 64.3725 125.989 56.4135 125.989V125.983ZM35.9174 87.4082C37.9967 87.4082 39.9895 87.7559 41.5875 89.2522C43.9999 91.5121 45.1228 95.9824 45.1228 103.321C45.1104 103.526 43.8271 120.364 52.3476 124.338C59.8685 127.845 72.566 120.681 90.0943 103.042C96.6651 96.4294 109.128 86.8867 110.535 85.8188C110.646 85.2103 111.121 83.4719 112.25 79.3866C114.453 71.396 118.142 58.0225 118.142 54.9243V53.5087C117.426 52.0249 107.283 31.1078 103.902 27.7116C101.718 25.5137 101.99 21.3353 102.243 17.2934C102.446 14.0525 102.644 10.9916 101.434 9.76851C98.0101 6.32268 88.811 11.0475 79.0689 16.0455C68.315 21.565 57.197 27.277 50.0894 24.6135C47.6462 23.7008 45.8323 21.8072 44.697 18.9946C43.9443 17.1382 42.7474 16.2566 41.3654 15.2322C40.5818 14.6547 39.6934 14.0028 38.8049 13.1026C36.3802 10.6626 32.0984 9.43324 27.0453 9.71263C22.6216 9.96718 18.4138 11.3828 16.569 13.2392C11.8059 18.0323 12.6389 27.5378 16.3592 33.0759C20.1783 38.7507 40.878 68.4903 41.0877 68.7883C41.205 68.956 41.1741 69.1857 41.0199 69.3161C40.8656 69.4465 40.6373 69.4402 40.4893 69.2912C38.2373 67.0251 35.5534 66.8512 33.6902 67.1058C30.1302 67.5838 26.5455 70.0052 24.7748 73.1282C22.6462 76.8783 22.1897 82.9814 24.9352 85.7443C27.1317 87.9546 30.087 87.7497 33.2151 87.5262C34.1159 87.4641 35.029 87.402 35.9236 87.402L35.9174 87.4082Z" fill="url(#paint10_linear_502_8333)"/>
<path d="M54.3147 128.448C52.6674 128.448 51.1867 128.119 49.8725 127.461C40.7104 122.86 43.24 104.072 43.351 103.278C43.351 95.2996 42.1911 90.314 39.8096 88.0913C37.7612 86.179 34.9786 86.3901 32.0356 86.6074C28.7225 86.8557 25.2921 87.1165 22.5835 84.3909C19.147 80.9326 20.2205 74.0037 22.275 70.5393C24.0026 67.6212 27.6057 65.4295 31.4495 64.9453C34.0964 64.6162 36.5828 65.0881 38.6867 66.2863C33.2634 59.1836 16.9197 37.776 12.9587 32.6787C9.36169 28.0408 7.87477 16.7969 13.2733 11.358C15.4945 9.12291 19.8503 7.49002 24.3604 7.20442C27.396 7.01816 33.0598 7.27272 36.9715 11.209C37.7674 12.01 38.4892 12.6308 39.1247 13.1772C40.6672 14.5058 41.8826 15.5551 42.8821 18.02C44.1408 21.1367 45.9794 23.0738 48.5028 23.9555C55.4315 26.3707 66.5062 20.0254 76.273 14.4251C86.3297 8.65726 95.825 3.21224 100.088 7.49623C101.699 9.1167 101.47 12.2335 101.224 15.5365C100.952 19.2617 100.668 23.1111 102.828 25.2903C106.789 29.2763 118.351 49.7588 118.838 50.628C118.869 50.6839 118.888 50.7522 118.888 50.8205V52.323C118.888 55.8619 116.111 69.4404 114.452 77.5489C113.767 80.9078 113.174 83.8073 113.162 84.1177C113.162 84.2295 113.107 84.3412 113.02 84.4157C112.884 84.5275 99.1197 95.877 91.4506 103.594C75.0329 120.116 62.5699 128.442 54.2962 128.442L54.3147 128.448ZM34.7565 85.6947C36.7925 85.6947 38.7545 86.0424 40.334 87.5201C42.913 89.929 44.1161 94.9519 44.1161 103.327C44.0852 103.57 41.5433 122.413 50.2118 126.765C57.8007 130.577 71.4976 122.599 90.92 103.054C98.2251 95.7031 111.034 85.0801 112.422 83.9252C112.514 83.2547 112.934 81.1872 113.705 77.3999C115.359 69.3162 118.123 55.7874 118.123 52.3292V50.926C117.271 49.4235 106.048 29.624 102.285 25.8429C99.8724 23.4153 100.181 19.2058 100.459 15.4868C100.687 12.3638 100.903 9.41472 99.5454 8.04881C95.7016 4.18079 86.447 9.48922 76.6555 15.1019C66.2594 21.0622 55.5178 27.2275 48.2498 24.6943C45.5413 23.7506 43.4929 21.6024 42.1664 18.318C41.241 16.0208 40.1427 15.077 38.6188 13.767C37.971 13.2082 37.2368 12.5749 36.4224 11.7554C30.4377 5.73917 18.0981 7.59557 13.8101 11.9106C8.8496 16.9024 10.1082 27.7614 13.5571 32.2068C18.2955 38.3162 40.8152 67.8137 41.0374 68.1117C41.1608 68.2731 41.1361 68.5028 40.988 68.6394C40.8338 68.776 40.6055 68.7636 40.4636 68.6208C38.1684 66.3112 34.991 65.2805 31.5359 65.7151C27.9204 66.1684 24.5394 68.2172 22.9229 70.9367C20.9485 74.2583 20.0663 80.7774 23.1141 83.8445C25.5759 86.3218 28.8212 86.0734 31.9678 85.8375C32.8932 85.7692 33.8249 85.6947 34.7442 85.6947H34.7565Z" fill="url(#paint11_linear_502_8333)"/>
<path d="M52.2112 130.912C50.5392 130.912 49.0523 130.565 47.7504 129.876C38.4094 124.902 42.2038 104.141 42.3704 103.259C42.3642 94.1321 41.1673 88.7368 38.5945 86.3464C36.5338 84.4342 33.7574 84.6577 30.8205 84.8874C27.3531 85.1668 23.7747 85.4524 20.807 82.4598C17.1853 78.8153 17.6542 71.9733 20.4985 68.2916C22.8554 65.2431 26.3906 63.3556 30.1912 63.1135C33.017 62.9334 35.781 63.6537 38.2181 65.1624C31.8694 57.4015 14.0079 35.64 10.2567 31.8465C6.74605 28.3014 4.673 15.9647 10.5713 10.0292C15.4454 5.12431 27.6986 2.88918 34.6273 9.86154C35.1764 10.4141 35.67 10.8922 36.1142 11.3144C38.0577 13.1956 39.1312 14.2263 40.3837 17.3368C41.8398 20.9379 43.8943 23.1295 46.6707 24.0236C53.7166 26.3022 63.977 19.8017 73.898 13.5123C84.0041 7.10488 93.5487 1.05762 98.2378 5.77622C99.9962 7.5457 99.7432 10.5507 99.4717 13.7296C99.1694 17.312 98.8609 21.0124 101.249 23.4213C105.598 27.7922 118.302 47.182 118.839 48.0078C118.882 48.0698 118.9 48.1443 118.9 48.2188V49.7214C118.9 53.5956 117.049 67.3106 115.945 75.5061C115.482 78.927 115.087 81.8886 115.087 82.199C115.087 82.3108 115.038 82.4101 114.958 82.4846C114.816 82.6088 100.743 95.0945 92.3024 103.588C74.2558 121.748 60.8119 130.906 52.2174 130.906L52.2112 130.912ZM33.5969 83.9747C35.6083 83.9747 37.5333 84.3224 39.1004 85.7814C41.8398 88.327 43.1169 93.9024 43.1169 103.321C43.0676 103.6 39.2485 124.486 48.1021 129.199C55.7773 133.284 70.4676 124.486 91.7657 103.054C99.8111 94.9579 112.953 83.2483 114.335 82.019C114.39 81.3422 114.686 79.1692 115.192 75.4005C116.297 67.2237 118.141 53.5397 118.141 49.7151V48.3244C117.154 46.8157 104.852 28.1213 100.712 23.9553C98.0712 21.3042 98.4167 17.2437 98.7128 13.6675C98.9658 10.6687 99.2064 7.8313 97.6948 6.31017C93.4315 2.01996 84.1336 7.91201 74.2867 14.1518C64.2176 20.5343 53.8092 27.1279 46.4239 24.7438C43.4686 23.7876 41.1981 21.3911 39.6742 17.6162C38.4772 14.6547 37.5086 13.7171 35.5774 11.8545C35.1332 11.4261 34.6396 10.9481 34.0844 10.3893C27.4642 3.72735 15.7601 5.86935 11.0957 10.5569C5.5923 16.0951 7.53578 28.0158 10.7873 31.3002C15.3714 35.9318 40.7847 67.1057 41.0377 67.4161C41.1673 67.5713 41.1488 67.8011 41.0007 67.9377C40.8526 68.0742 40.6243 68.068 40.4824 67.9252C37.6443 65.0692 34.0103 63.6164 30.2344 63.8585C26.6436 64.0821 23.3119 65.864 21.0908 68.7448C18.4378 72.1782 17.9812 78.5359 21.3376 81.9072C24.0646 84.6453 27.4642 84.3783 30.7588 84.1113C31.7028 84.0368 32.6653 83.9561 33.6031 83.9561L33.5969 83.9747Z" fill="url(#paint12_linear_502_8333)"/>
<path d="M50.1071 133.378C48.4166 133.378 46.9235 133.017 45.634 132.297C41.599 130.05 39.6678 124.456 39.8776 115.677C40.038 109.207 41.3645 103.303 41.383 103.247C41.3707 93.0769 40.1059 87.1228 37.385 84.6083C35.312 82.6898 32.5356 82.9257 29.5926 83.174C26.1498 83.4659 22.2505 83.7949 19.0176 80.5416C14.8962 76.3942 15.5255 69.7198 18.6967 66.0815C21.1708 63.2441 24.6568 61.6175 28.5252 61.4871C31.6163 61.3877 34.7814 62.2818 37.5763 64.0078C30.4995 56.0855 12.5516 36.0625 7.51093 30.99C5.58595 29.0529 4.12371 25.011 3.87075 20.9195C3.56226 15.9401 4.97514 11.6064 7.85026 8.70697C12.8725 3.64689 24.4593 0.672924 32.2579 8.52071C35.5279 11.8113 36.2004 12.5626 37.8539 16.6665C39.5074 20.7643 41.7717 23.1981 44.7764 24.0983C51.9087 26.2341 61.8606 19.3176 71.4916 12.6247C81.6409 5.57158 91.2226 -1.09034 96.3496 4.06908C98.2561 5.98757 97.9785 8.87461 97.6885 11.9355C97.3615 15.3751 97.0222 18.9265 99.6381 21.5652C104.37 26.321 118.666 45.2079 118.808 45.4004C118.857 45.4624 118.882 45.5432 118.882 45.6239V47.1264C118.882 51.3359 117.956 65.1937 117.407 73.4699C117.166 77.0771 116.975 79.9331 116.975 80.287C116.975 80.3926 116.932 80.4857 116.858 80.5602C116.716 80.6968 102.334 94.3249 93.1228 103.594C73.4412 123.4 59.0163 133.378 50.1071 133.384V133.378ZM32.4986 82.2552C34.4852 82.2552 36.3238 82.6153 37.8848 84.0557C40.7722 86.7254 42.1172 92.8534 42.1172 103.327C42.0555 103.644 36.9346 126.604 45.998 131.645C53.772 135.979 69.4556 126.362 92.6108 103.06C101.403 94.2131 114.884 81.4108 116.253 80.1132C116.284 79.3992 116.445 76.9467 116.679 73.4078C117.228 65.1378 118.154 51.2986 118.154 47.114V45.7356C117.018 44.2393 103.642 26.6253 99.126 22.0805C96.2571 19.1997 96.6335 15.2944 96.9605 11.8548C97.2381 8.97395 97.4972 6.25454 95.8376 4.5844C91.1485 -0.134206 81.8075 6.35388 71.9235 13.2269C62.1505 20.0192 52.0444 27.0475 44.579 24.7999C41.346 23.8314 38.9275 21.2547 37.1814 16.9335C35.5711 12.9475 34.9911 12.2956 31.7458 9.02983C24.2866 1.52352 13.1933 4.37331 8.38087 9.21609C4.70367 12.9165 4.44454 18.0945 4.6173 20.8512C4.86409 24.7751 6.23995 28.6245 8.04153 30.4436C14.347 36.7889 40.7661 66.4354 41.0314 66.7396C41.1671 66.8886 41.1548 67.1184 41.0129 67.2612C40.8709 67.404 40.6365 67.3978 40.4946 67.255C37.1752 63.9147 32.8255 62.0707 28.5561 62.2197C24.8974 62.3377 21.5965 63.8836 19.2582 66.5596C16.309 69.9433 15.7167 76.152 19.542 80.0076C22.5282 83.0126 26.0881 82.7146 29.5309 82.4228C30.5427 82.3359 31.5422 82.2552 32.5047 82.2552H32.4986Z" fill="url(#paint13_linear_502_8333)"/>
<path d="M48.0095 135.842C46.3005 135.842 44.8074 135.47 43.5241 134.731C39.3965 132.347 37.6258 126.299 38.2551 116.757C38.6993 110.045 40.2356 103.874 40.3899 103.278C40.3899 91.9839 39.051 85.4958 36.1944 82.8571C34.109 80.9324 31.3203 81.1808 28.3711 81.4415C24.7865 81.7582 20.7268 82.1183 17.2347 78.6042C15.1863 76.5429 14.0449 73.8545 14.0202 71.042C13.9955 68.2978 15.0259 65.7398 16.9077 63.8461C22.1211 58.5998 29.5989 58.19 36.361 62.3374C28.1182 53.9122 10.0037 35.3855 4.76553 30.1143C2.64929 27.9847 1.10685 23.9739 0.829206 19.8948C0.496038 14.9402 2.01997 10.4886 5.12955 7.36564C8.15891 4.31717 12.3112 2.36764 16.5251 2.00754C19.9926 1.71573 25.1258 2.36764 29.9012 7.17317C33.1219 10.4141 33.5229 11.4199 34.8556 14.7664L35.343 15.9895C37.2001 20.5902 39.668 23.2599 42.8763 24.1539C50.0703 26.1531 59.7506 18.8269 69.1102 11.7428C79.2965 4.03157 88.9152 -3.24502 94.4804 2.35522C96.5349 4.42272 96.2326 7.198 95.9179 10.1347C95.5601 13.4315 95.1961 16.8339 98.0465 19.7023C103.161 24.8493 118.641 42.6062 118.795 42.7862C118.851 42.8545 118.888 42.9414 118.888 43.0284V78.3745C118.888 78.4738 118.851 78.5669 118.783 78.6352C118.783 78.6352 104.068 93.4305 93.9683 103.6C72.6578 125.045 57.2457 135.855 48.0219 135.855L48.0095 135.842ZM31.345 80.5351C33.3131 80.5351 35.1332 80.8952 36.6818 82.3232C39.705 85.1109 41.1179 91.7852 41.1179 103.327C41.1179 103.358 41.1179 103.389 41.1056 103.42C41.0377 103.675 34.6088 128.727 43.8881 134.097C51.7793 138.661 68.4562 128.218 93.4438 103.066C103.044 93.4057 116.809 79.5603 118.154 78.213V43.1525C116.871 41.6811 102.421 25.1349 97.5282 20.2114C94.431 17.1009 94.8382 13.3508 95.1961 10.0478C95.5045 7.16696 95.776 4.68348 93.9683 2.86433C88.8473 -2.28888 79.4754 4.80766 69.5483 12.3202C60.0468 19.5098 50.2183 26.9479 42.685 24.8555C39.2423 23.8994 36.6201 21.0868 34.6705 16.2627L34.1831 15.0396C32.8627 11.7179 32.5049 10.8301 29.3891 7.6947C24.8112 3.09406 19.9062 2.46698 16.593 2.74637C12.5518 3.09406 8.55995 4.96908 5.65398 7.89958C2.68631 10.8611 1.23641 15.1079 1.55724 19.8513C1.82254 23.7628 3.27861 27.5873 5.27762 29.599C12.1014 36.4658 40.7169 65.7708 41.0068 66.0688C41.1487 66.2116 41.1487 66.4414 41.0068 66.5842C40.8649 66.727 40.6367 66.727 40.4947 66.5842C33.054 59.1027 23.5649 58.19 17.4198 64.3739C15.6737 66.1309 14.7236 68.5026 14.7482 71.0482C14.7667 73.6683 15.8341 76.1704 17.7468 78.0951C20.9982 81.367 24.7186 81.0442 28.3094 80.7213C29.3459 80.6282 30.3701 80.5413 31.3511 80.5413L31.345 80.5351Z" fill="url(#paint14_linear_502_8333)"/>
<path d="M93.8689 103H41.8037V25H118.195V78.1613L118.064 78.2957L93.8689 103ZM42.6836 102.102H93.5037L117.316 77.7946V25.8984H42.6836V102.095V102.102Z" fill="url(#paint15_linear_502_8333)"/>
<path d="M119 77.7277C119 77.9929 118.895 78.2473 118.707 78.4348L94.4348 102.707C94.2473 102.895 93.9929 103 93.7277 103H42C41.4477 103 41 102.552 41 102V26C41 25.4477 41.4477 25 42 25H118C118.552 25 119 25.4477 119 26V77.7277Z" fill="black"/>
<path d="M94.0067 103.806H41.3614C41.1593 103.806 41 103.645 41 103.441V25.3652C41 25.1609 41.1593 25 41.3614 25H118.639C118.841 25 119 25.1609 119 25.3652V78.5588C119 78.6579 118.963 78.7507 118.896 78.8188L94.264 103.707C94.1966 103.775 94.1047 103.813 94.0067 103.813V103.806ZM41.7228 103.076H93.8597L118.277 78.4041V25.7304H41.7228V103.082V103.076Z" fill="url(#paint16_linear_502_8333)"/>
<path d="M84.886 54.3035C86.6259 55.1976 87.4526 56.7932 87.4526 58.6993C87.4218 62.4493 85.1636 65.4916 80.7893 65.4916H70.7695V43.9661H79.907C83.6027 43.9661 86.5703 46.8593 86.5703 50.5783C86.5703 51.8697 85.9287 53.4405 84.8922 54.2973L84.886 54.3035ZM76.057 48.8896V52.3664H79.5121C81.6839 52.3664 81.6839 48.8896 79.4813 48.8896H76.057ZM76.057 56.9484V60.6054H80.4252C82.6279 60.6054 82.597 56.9484 80.3944 56.9484H76.057Z" fill="white"/>
<path d="M50.9951 78.8839C50.9951 76.2638 52.5808 74.6868 55.1536 74.6868C57.4919 74.6868 59.0652 76.0527 59.0652 78.1326V78.1761H56.3567V78.1016C56.2765 77.3689 55.8507 76.9033 55.2091 76.9033C54.4379 76.9033 54.0121 77.6111 54.0121 78.8839C54.0121 80.1815 54.4194 80.8768 55.2091 80.8768C55.8754 80.8768 56.2765 80.4174 56.3505 79.6786V79.6041H59.0652V79.6475C59.0652 81.6157 57.6276 83.0934 55.1782 83.0934C52.5808 83.0934 51.0013 81.5163 51.0013 78.8776L50.9951 78.8839Z" fill="white"/>
<path d="M59.6523 80.5787C59.6523 79.0141 60.8431 78.1635 62.9779 78.0145L64.6622 77.9027V77.5737C64.6622 77.108 64.3661 76.8162 63.7553 76.8162C63.1444 76.8162 62.8051 77.0894 62.7372 77.4122L62.7249 77.4868H60.0719V77.3936C60.2015 75.7483 61.5897 74.6804 63.9218 74.6804C66.254 74.6804 67.636 75.798 67.636 77.4309V82.9132H64.6622V81.8204H64.6067C64.1563 82.5841 63.4097 83.0187 62.3794 83.0187C60.7629 83.0187 59.6585 81.9694 59.6585 80.5787H59.6523ZM63.4653 81.0071C64.1748 81.0071 64.6622 80.6159 64.6622 80.082V79.5729L63.4714 79.6598C62.8421 79.7033 62.5583 79.9516 62.5583 80.3552C62.5583 80.7836 62.9162 81.0133 63.4653 81.0133V81.0071Z" fill="white"/>
<path d="M68.7581 74.8606H71.732V76.3134H71.7998C72.1762 75.289 73.0276 74.6868 74.1567 74.6868C76.1742 74.6868 77.2971 76.1831 77.2971 78.8838C77.2971 81.5784 76.1865 83.0996 74.1875 83.0996C73.0276 83.0996 72.1577 82.5097 71.7875 81.5288H71.7258V85.4775H68.752V74.8606H68.7581ZM74.2801 78.8901C74.2801 77.7601 73.7742 77.0957 73.0029 77.0957C72.2317 77.0957 71.7196 77.7601 71.7196 78.8901C71.7196 80.02 72.2194 80.6844 73.0029 80.6844C73.7865 80.6844 74.2801 80.0014 74.2801 78.8901V78.8901Z" fill="white"/>
<path d="M78.2285 74.8605H81.2024V82.9194H78.2285V74.8605V74.8605ZM78.2409 72.7123C78.2409 71.9362 78.8763 71.2905 79.7154 71.2905C80.5545 71.2905 81.19 71.9424 81.19 72.7123C81.19 73.4822 80.5545 74.1341 79.7154 74.1341C78.8763 74.1341 78.2409 73.4822 78.2409 72.7123Z" fill="white"/>
<path d="M83.0417 80.4794V77.0212H81.9805V74.8605H83.0417V73.0911H86.0155V74.8605H87.4222V77.0212H86.0155V80.02C86.0155 80.6719 86.3055 80.9327 86.9163 80.9327C87.1446 80.9327 87.2618 80.9202 87.4222 80.8954V82.9815C87.1014 83.0374 86.6818 83.0933 86.0525 83.0933C83.9795 83.0933 83.0417 82.3793 83.0417 80.4794V80.4794Z" fill="white"/>
<path d="M88.1055 80.5787C88.1055 79.0141 89.2962 78.1635 91.431 78.0145L93.1153 77.9027V77.5737C93.1153 77.108 92.8192 76.8162 92.2084 76.8162C91.5976 76.8162 91.2582 77.0894 91.1904 77.4122L91.178 77.4868H88.525V77.3936C88.6546 75.7483 90.0428 74.6804 92.375 74.6804C94.7071 74.6804 96.0892 75.798 96.0892 77.4309V82.9132H93.1153V81.8204H93.0598C92.6094 82.5841 91.8629 83.0187 90.8325 83.0187C89.216 83.0187 88.1116 81.9694 88.1116 80.5787H88.1055ZM91.9184 81.0071C92.6279 81.0071 93.1153 80.6159 93.1153 80.082V79.5729L91.9246 79.6598C91.2952 79.7033 91.0114 79.9516 91.0114 80.3552C91.0114 80.7836 91.3693 81.0133 91.9184 81.0133V81.0071Z" fill="white"/>
<path d="M97.249 72.3833H100.223V82.9195H97.249V72.3833V72.3833Z" fill="white"/>
<path d="M68.3448 44.8041L59.5775 60.5804H68.4373V65.4977H51.3594V64.6657L60.0958 48.8895H52.1491V43.9722H68.3448V44.8041Z" fill="white"/>
<path d="M100.582 59.1586C100.582 57.6499 98.8109 57.3146 96.67 57.1905C92.0242 56.8552 88.9701 55.2534 88.9084 50.5782C88.7234 41.29 105.345 41.29 105.228 50.5782H100.033C100.033 47.716 94.2885 47.9644 94.1034 50.5161C93.98 52.1428 95.5718 52.4843 97.4968 52.7016C101.742 53.161 105.9 53.8067 105.9 59.1897C105.9 68.2295 88.4827 68.3848 88.6061 58.9103H93.8936C93.8936 61.6483 100.588 61.6794 100.588 59.1586H100.582Z" fill="white"/>
<defs>
<linearGradient id="paint0_linear_502_8333" x1="34.0711" y1="30.2075" x2="55.8628" y2="30.2075" gradientUnits="userSpaceOnUse">
<stop stop-color="#ABD4B8"/>
<stop offset="1" stop-color="#00A9AE"/>
</linearGradient>
<linearGradient id="paint1_linear_502_8333" x1="41" y1="63.9969" x2="119" y2="63.9969" gradientUnits="userSpaceOnUse">
<stop stop-color="#ABD4B8"/>
<stop offset="1" stop-color="#00A9AE"/>
</linearGradient>
<linearGradient id="paint2_linear_502_8333" x1="37.2691" y1="64.4732" x2="118.969" y2="64.4732" gradientUnits="userSpaceOnUse">
<stop stop-color="#ABD4B8"/>
<stop offset="1" stop-color="#00A9AE"/>
</linearGradient>
<linearGradient id="paint3_linear_502_8333" x1="34.282" y1="64.7962" x2="118.956" y2="64.7962" gradientUnits="userSpaceOnUse">
<stop stop-color="#ABD4B8"/>
<stop offset="1" stop-color="#00A9AE"/>
</linearGradient>
<linearGradient id="paint4_linear_502_8333" x1="31.1156" y1="65.0631" x2="118.949" y2="65.0631" gradientUnits="userSpaceOnUse">
<stop stop-color="#ABD4B8"/>
<stop offset="1" stop-color="#00A9AE"/>
</linearGradient>
<linearGradient id="paint5_linear_502_8333" x1="27.9645" y1="65.386" x2="118.944" y2="65.386" gradientUnits="userSpaceOnUse">
<stop stop-color="#ABD4B8"/>
<stop offset="1" stop-color="#00A9AE"/>
</linearGradient>
<linearGradient id="paint6_linear_502_8333" x1="24.8486" y1="65.684" x2="118.938" y2="65.684" gradientUnits="userSpaceOnUse">
<stop stop-color="#ABD4B8"/>
<stop offset="1" stop-color="#00A9AE"/>
</linearGradient>
<linearGradient id="paint7_linear_502_8333" x1="21.4612" y1="66.0005" x2="118.931" y2="66.0005" gradientUnits="userSpaceOnUse">
<stop stop-color="#ABD4B8"/>
<stop offset="1" stop-color="#00A9AE"/>
</linearGradient>
<linearGradient id="paint8_linear_502_8333" x1="18.5425" y1="66.2987" x2="118.925" y2="66.2987" gradientUnits="userSpaceOnUse">
<stop stop-color="#ABD4B8"/>
<stop offset="1" stop-color="#00A9AE"/>
</linearGradient>
<linearGradient id="paint9_linear_502_8333" x1="15.2734" y1="66.5966" x2="118.92" y2="66.5966" gradientUnits="userSpaceOnUse">
<stop stop-color="#ABD4B8"/>
<stop offset="1" stop-color="#00A9AE"/>
</linearGradient>
<linearGradient id="paint10_linear_502_8333" x1="12.497" y1="66.8947" x2="118.913" y2="66.8947" gradientUnits="userSpaceOnUse">
<stop stop-color="#ABD4B8"/>
<stop offset="1" stop-color="#00A9AE"/>
</linearGradient>
<linearGradient id="paint11_linear_502_8333" x1="9.73805" y1="67.2114" x2="118.9" y2="67.2114" gradientUnits="userSpaceOnUse">
<stop stop-color="#ABD4B8"/>
<stop offset="1" stop-color="#00A9AE"/>
</linearGradient>
<linearGradient id="paint12_linear_502_8333" x1="6.85094" y1="67.5093" x2="118.894" y2="67.5093" gradientUnits="userSpaceOnUse">
<stop stop-color="#ABD4B8"/>
<stop offset="1" stop-color="#00A9AE"/>
</linearGradient>
<linearGradient id="paint13_linear_502_8333" x1="3.82757" y1="67.8075" x2="118.888" y2="67.8075" gradientUnits="userSpaceOnUse">
<stop stop-color="#ABD4B8"/>
<stop offset="1" stop-color="#00A9AE"/>
</linearGradient>
<linearGradient id="paint14_linear_502_8333" x1="0.786017" y1="68.1053" x2="118.882" y2="68.1053" gradientUnits="userSpaceOnUse">
<stop stop-color="#ABD4B8"/>
<stop offset="1" stop-color="#00A9AE"/>
</linearGradient>
<linearGradient id="paint15_linear_502_8333" x1="41.8037" y1="64" x2="118.195" y2="64" gradientUnits="userSpaceOnUse">
<stop stop-color="#ABD4B8"/>
<stop offset="1" stop-color="#00A9AE"/>
</linearGradient>
<linearGradient id="paint16_linear_502_8333" x1="41" y1="64.4032" x2="118.994" y2="64.4032" gradientUnits="userSpaceOnUse">
<stop stop-color="#ABD4B8"/>
<stop offset="1" stop-color="#00A9AE"/>
</linearGradient>
</defs>
</svg>
